<svg width="140" height="140" xmlns="http://www.w3.org/2000/svg" xmlns:xlink="http://www.w3.org/1999/xlink" xml:space="preserve" overflow="hidden"><g transform="translate(-664 -1814)"><path d="M664 1837.17C664 1824.37 674.372 1814 687.167 1814L780.833 1814C793.628 1814 804 1824.37 804 1837.17L804 1929.83C804 1942.63 793.628 1953 780.833 1953L687.167 1953C674.372 1953 664 1942.63 664 1929.83Z" fill="#D2D2D200" fill-rule="evenodd"/><path d="M684 1922 782 1867 782 1922Z" fill="#000000" fill-rule="evenodd"/><path d="M1.76849-2.94768 76.9073 42.1327 73.3703 48.0281-1.76849 2.94768ZM75.9246 34.8619 86.9296 52.1544 66.4926 50.5829Z" fill="#000000" transform="matrix(1 0 0 -1 688.5 1899.65)"/></g></svg>